<svg width="31" height="31" viewBox="0 0 31 31" fill="none" xmlns="http://www.w3.org/2000/svg">
  <path d="M-0.0603619 10.414V15.2578C-0.0603619 15.9267 0.481722 16.4687 1.15058 16.4687H1.94691L2.45707 21.0091C2.5266 21.6278 3.05071 22.0847 3.65902 22.0849C3.70419 22.0849 3.7496 22.0823 3.79572 22.0771C4.46032 22.0026 4.93855 21.4031 4.86381 20.7387L4.2328 15.1228C4.16397 14.5102 3.64601 14.0469 3.02943 14.0469H2.36128V11.625H28.5176V14.0469H7.87106C7.2022 14.0469 6.66012 14.5892 6.66012 15.2578C6.66012 15.9267 7.2022 16.4687 7.87106 16.4687H26.4727L25.2769 26.4446C25.1312 27.6609 24.0974 28.5781 22.8723 28.5781H7.90961C6.67549 28.5781 5.64075 27.6531 5.50286 26.4266C5.42836 25.762 4.82904 25.284 4.16445 25.3585C3.49985 25.4332 3.02162 26.0326 3.09612 26.6972C3.37189 29.15 5.44114 31 7.90961 31H22.8723C25.3225 31 27.3901 29.1654 27.6817 26.7326L28.9118 16.4687H29.7285C30.3974 16.4687 30.9395 15.9267 30.9395 15.2578V10.414C30.9395 9.74519 30.3974 9.2031 29.7285 9.2031H25.4335L19.0346 0.494041C18.6387 -0.0447319 17.8809 -0.160859 17.3419 0.235298C16.8029 0.631218 16.687 1.389 17.0829 1.92801L22.4281 9.2031H8.40604L13.7514 1.92801C14.1474 1.389 14.0315 0.631218 13.4925 0.235298C12.9535 -0.160859 12.1957 -0.0449685 11.7995 0.494041L5.40093 9.2031H1.15058C0.481722 9.2031 -0.0603619 9.74543 -0.0603619 10.414ZM16.6504 20.1016V24.9453C16.6504 25.6142 16.1083 26.1562 15.4394 26.1562C14.7708 26.1562 14.2285 25.6142 14.2285 24.9453V20.1016C14.2285 19.4327 14.7708 18.8906 15.4394 18.8906C16.1083 18.8906 16.6504 19.4327 16.6504 20.1016ZM11.8066 20.1016V24.9453C11.8066 25.6142 11.2645 26.1562 10.5957 26.1562C9.92705 26.1562 9.38473 25.6142 9.38473 24.9453V20.1016C9.38473 19.4327 9.92705 18.8906 10.5957 18.8906C11.2645 18.8906 11.8066 19.4327 11.8066 20.1016ZM21.4941 20.1016V24.9453C21.4941 25.6142 20.952 26.1562 20.2832 26.1562C19.6146 26.1562 19.0722 25.6142 19.0722 24.9453V20.1016C19.0722 19.4327 19.6146 18.8906 20.2832 18.8906C20.952 18.8906 21.4941 19.4327 21.4941 20.1016Z" fill="white"/>
</svg>
