<svg width="46" height="46" viewBox="0 0 46 46" fill="none" xmlns="http://www.w3.org/2000/svg">
  <path d="M23.4527 45.9999C23.3004 45.9999 23.1481 45.9999 22.9947 45.9992C19.3891 46.008 16.0575 45.9164 12.8175 45.7191C9.84702 45.5384 7.13556 44.5119 4.9758 42.7508C2.89185 41.0515 1.46873 38.7538 0.746124 35.9223C0.117218 33.4572 0.0838776 31.0374 0.0519409 28.6969C0.028778 27.0176 0.00491333 25.0277 0 23.0041C0.00491333 20.9721 0.028778 18.9822 0.0519409 17.3029C0.0838776 14.9627 0.117218 12.5429 0.746124 10.0775C1.46873 7.24598 2.89185 4.9483 4.9758 3.24899C7.13556 1.48791 9.84702 0.461373 12.8178 0.280633C16.0578 0.0837486 19.3901 -0.00820096 23.0035 0.000572855C26.6102 -0.0071481 29.9408 0.0837486 33.1808 0.280633C36.1512 0.461373 38.8627 1.48791 41.0224 3.24899C43.1068 4.9483 44.5295 7.24598 45.2521 10.0775C45.881 12.5426 45.9144 14.9627 45.9463 17.3029C45.9695 18.9822 45.9937 20.9721 45.9982 22.9957V23.0041C45.9937 25.0277 45.9695 27.0176 45.9463 28.6969C45.9144 31.037 45.8814 33.4569 45.2521 35.9223C44.5295 38.7538 43.1068 41.0515 41.0224 42.7508C38.8627 44.5119 36.1512 45.5384 33.1808 45.7191C30.078 45.9079 26.8907 45.9999 23.4527 45.9999ZM22.9947 42.4054C26.5418 42.4139 29.7986 42.3244 32.9625 42.132C35.2086 41.9955 37.156 41.2666 38.7514 39.9656C40.2261 38.7629 41.2418 37.1036 41.77 35.0337C42.2936 32.9817 42.3238 30.7784 42.3529 28.6478C42.3757 26.9797 42.3996 25.0038 42.4045 22.9999C42.3996 20.9956 42.3757 19.0201 42.3529 17.352C42.3238 15.2214 42.2936 13.0181 41.77 10.9657C41.2418 8.89581 40.2261 7.23651 38.7514 6.03379C37.156 4.73316 35.2086 4.00424 32.9625 3.86772C29.7986 3.67504 26.5418 3.58625 23.0032 3.59397C19.4568 3.58555 16.1996 3.67504 13.0358 3.86772C10.7897 4.00424 8.84224 4.73316 7.24681 6.03379C5.77211 7.23651 4.75645 8.89581 4.22827 10.9657C3.70465 13.0181 3.67447 15.221 3.64534 17.352C3.62253 19.0215 3.59866 20.9984 3.59375 23.0041C3.59866 25.001 3.62253 26.9783 3.64534 28.6478C3.67447 30.7784 3.70465 32.9817 4.22827 35.0337C4.75645 37.1036 5.77211 38.7629 7.24681 39.9656C8.84224 41.2662 10.7897 41.9952 13.0358 42.1317C16.1996 42.3244 19.4575 42.4142 22.9947 42.4054ZM22.9091 34.2304C16.7169 34.2304 11.6786 29.1924 11.6786 22.9999C11.6786 16.8073 16.7169 11.7694 22.9091 11.7694C29.1017 11.7694 34.1396 16.8073 34.1396 22.9999C34.1396 29.1924 29.1017 34.2304 22.9091 34.2304ZM22.9091 15.3632C18.6984 15.3632 15.2724 18.7892 15.2724 22.9999C15.2724 27.2106 18.6984 30.6366 22.9091 30.6366C27.1202 30.6366 30.5458 27.2106 30.5458 22.9999C30.5458 18.7892 27.1202 15.3632 22.9091 15.3632ZM35.3974 8.17566C33.909 8.17566 32.7021 9.38223 32.7021 10.871C32.7021 12.3597 33.909 13.5663 35.3974 13.5663C36.8861 13.5663 38.0927 12.3597 38.0927 10.871C38.0927 9.38223 36.8861 8.17566 35.3974 8.17566Z" fill="white"/>
</svg>
