<svg width="54" height="54" viewBox="0 0 54 54" fill="none" xmlns="http://www.w3.org/2000/svg">
  <g clip-path="url(#clip0)">
    <path d="M27.3263 43.875C35.1383 43.875 32.3527 38.9295 32.9557 37.5075C32.9468 36.4455 32.9377 35.424 32.9738 34.803C33.4688 34.9425 34.6365 35.5342 37.0485 37.8787C40.7722 41.6362 41.724 43.875 44.7323 43.875H50.2695C52.0245 43.875 52.938 43.1483 53.3948 42.5385C53.8358 41.949 54.2677 40.914 53.7952 39.303C52.56 35.424 45.3555 28.7257 44.9077 28.0193C44.9753 27.8888 45.0833 27.7155 45.1395 27.6255H45.135C46.557 25.7467 51.984 17.6152 52.7827 14.3617C52.785 14.3572 52.7873 14.3505 52.7873 14.3438C53.2192 12.8587 52.8232 11.8958 52.4137 11.3513C51.7972 10.5368 50.8162 10.125 49.491 10.125H43.9538C42.0998 10.125 40.6935 11.0587 39.9825 12.762C38.7923 15.7882 35.4487 22.0118 32.9422 24.2145C32.8657 21.0938 32.9175 18.711 32.958 16.9402C33.039 13.4865 33.3 10.125 29.7157 10.125H21.0127C18.7673 10.125 16.6185 12.5775 18.945 15.489C20.979 18.0405 19.6762 19.4625 20.115 26.541C18.405 24.7072 15.363 19.755 13.212 13.4258C12.609 11.7135 11.6955 10.1272 9.12375 10.1272H3.5865C1.341 10.1272 0 11.3512 0 13.401C0 18.0045 10.1903 43.875 27.3263 43.875ZM9.12375 13.5022C9.612 13.5022 9.6615 13.5023 10.0238 14.5305C12.2265 21.0173 17.1675 30.6158 20.7765 30.6158C23.4878 30.6158 23.4878 27.837 23.4878 26.7907L23.4855 18.4613C23.337 15.705 22.3335 14.3325 21.6743 13.5L29.5672 13.509C29.5717 13.5473 29.5222 22.7227 29.5898 24.9457C29.5898 28.1025 32.0962 29.9115 36.009 25.9515C40.1377 21.2918 42.993 14.3258 43.1077 14.0423C43.2765 13.6373 43.4227 13.5 43.9538 13.5H49.491H49.5135C49.5112 13.5068 49.5112 13.5135 49.509 13.5202C49.0028 15.8827 44.0055 23.4113 42.3338 25.749C42.3068 25.785 42.282 25.8233 42.2573 25.8615C41.5215 27.063 40.923 28.3905 42.3585 30.258H42.3607C42.4912 30.4155 42.831 30.7845 43.326 31.2975C44.865 32.886 50.1435 38.3175 50.6115 40.4775C50.301 40.527 49.9635 40.491 44.7323 40.5022C43.6185 40.5022 42.7477 38.8372 39.4245 35.4847C36.4365 32.5777 34.497 31.3898 32.7308 31.3898C29.3018 31.3898 29.5515 34.173 29.583 37.539C29.5942 41.1885 29.5718 40.0343 29.5965 40.2638C29.3962 40.3425 28.8225 40.5 27.3263 40.5C13.05 40.5 3.753 17.8403 3.39525 13.509C3.519 13.4978 5.22225 13.5045 9.12375 13.5022Z" fill="white"/>
  </g>
  <defs>
    <clipPath id="clip0">
      <rect width="54" height="54" fill="white"/>
    </clipPath>
  </defs>
</svg>
